<?xml version="1.0" standalone="no"?>
<!DOCTYPE svg PUBLIC "-//W3C//DTD SVG 20010904//EN"
 "http://www.w3.org/TR/2001/REC-SVG-20010904/DTD/svg10.dtd">
<svg version="1.0" xmlns="http://www.w3.org/2000/svg"
 width="687.000000pt" height="113.000000pt" viewBox="0 0 687.000000 113.000000"
 preserveAspectRatio="xMidYMid meet">

<g transform="translate(0.000000,113.000000) scale(0.100000,-0.100000)"
fill="#000000" stroke="none">
<path d="M3959 1017 c-68 -45 -69 -52 -69 -442 0 -332 1 -352 20 -383 32 -51
76 -74 138 -69 38 3 59 10 78 28 59 55 59 53 59 429 0 328 -1 347 -21 384 -38
73 -137 99 -205 53z"/>
<path d="M5398 1021 c-375 -120 -464 -625 -151 -863 311 -236 754 -39 789 351
21 230 -138 458 -360 517 -73 20 -209 17 -278 -5z m297 -36 c78 -37 168 -127
202 -201 37 -81 42 -172 14 -261 -24 -79 -41 -108 -106 -174 -56 -58 -149
-106 -225 -116 l-55 -8 -3 -43 c-2 -26 -8 -42 -16 -42 -32 0 -144 68 -195 119
-76 76 -89 109 -66 162 25 54 94 115 171 150 87 40 94 39 94 -15 l0 -44 38 10
c93 26 187 93 229 165 l27 46 -24 44 c-40 76 -145 159 -237 187 -19 6 -22 3
-25 -30 -3 -37 -5 -38 -56 -49 -89 -20 -177 -72 -246 -145 -80 -85 -107 -140
-115 -238 l-7 -77 -9 70 c-27 230 120 446 346 510 83 23 190 15 264 -20z"/>
<path d="M6179 1017 c-68 -45 -69 -53 -69 -430 0 -365 2 -378 54 -427 27 -25
29 -25 244 -28 204 -2 219 -1 250 18 60 37 79 133 38 195 -28 42 -71 57 -182
63 l-103 5 -3 256 c-3 232 -5 260 -23 296 -36 73 -137 98 -206 52z"/>
<path d="M510 1023 c-63 -12 -177 -78 -231 -134 -228 -233 -158 -623 138 -765
68 -33 88 -38 173 -42 142 -7 246 27 335 109 64 59 78 105 73 231 -7 181 -33
203 -238 203 -151 0 -179 -10 -199 -66 -25 -71 20 -134 101 -145 48 -7 50 -7
27 -20 -61 -34 -166 -4 -211 58 -19 27 -23 46 -23 104 0 62 3 75 28 107 58 76
134 87 249 36 54 -23 81 -30 109 -26 49 6 92 38 113 81 44 94 -2 173 -139 238
-64 30 -79 33 -175 34 -58 1 -116 0 -130 -3z"/>
<path d="M3181 1013 c-22 -11 -40 -31 -52 -57 -17 -37 -19 -72 -19 -381 0
-312 2 -343 19 -375 26 -49 62 -72 120 -78 97 -9 150 53 159 184 l4 71 74 6
c130 10 232 76 286 185 19 39 23 63 23 142 0 87 -3 100 -30 149 -37 68 -102
125 -171 151 -47 17 -78 20 -217 20 -131 0 -169 -4 -196 -17z"/>
<path d="M4382 1010 c-60 -37 -62 -52 -62 -437 0 -330 1 -350 20 -381 32 -51
76 -74 138 -69 90 6 132 65 132 185 l0 69 81 6 c99 6 169 38 229 103 65 70 85
123 85 224 0 101 -23 158 -93 228 -76 77 -110 87 -317 90 -167 3 -182 1 -213
-18z"/>
<path d="M2103 991 c-79 -37 -78 -29 -78 -431 0 -321 2 -358 18 -387 33 -61
60 -68 267 -67 164 1 192 3 245 23 76 27 152 79 195 132 151 188 142 448 -20
610 -106 107 -207 139 -440 139 -121 0 -152 -4 -187 -19z"/>
<path d="M1125 950 c-57 -38 -65 -67 -65 -247 0 -89 5 -186 11 -215 27 -128
121 -244 247 -305 124 -60 282 -58 406 5 68 33 157 125 189 194 41 86 51 149
51 318 1 133 -2 160 -18 194 -38 76 -36 76 -436 76 -337 0 -357 -1 -385 -20z"/>
</g>
</svg>
